<svg width="501" height="231" viewBox="0 0 501 231" fill="none" xmlns="http://www.w3.org/2000/svg">
<rect x="501" y="231" width="250" height="231" transform="rotate(-180 501 231)" fill="#8CA87C"/>
<rect x="251" y="231" width="251" height="231" transform="rotate(-180 251 231)" fill="#AB8742"/>
<path fill-rule="evenodd" clip-rule="evenodd" d="M234.458 0L230.914 9.11842C227.369 19.25 219.098 38.5 213.19 57.75C208.464 77 204.919 96.25 212.009 115.5C219.098 134.75 229.732 144.882 234.458 164.132C238.003 183.382 230.545 202.632 227 211.75L212.009 231H251V220.868C251 211.75 251 192.5 251 173.25C251 154 251 134.75 251 115.5C251 96.25 251 77 251 57.75C251 38.5 251 19.25 251 9.11842V0L234.458 0Z" fill="#536A44"/>
<path fill-rule="evenodd" clip-rule="evenodd" d="M267.542 231L271.086 221.882C274.631 211.75 282.902 192.5 288.81 173.25C293.536 154 297.081 134.75 289.991 115.5C282.902 96.25 272.268 86.1184 267.542 66.8684C263.997 47.6184 271.955 29.3816 275.5 20.2632L289.991 1.52588e-05L251 1.52588e-05L251 10.1316C251 19.25 251 38.5 251 57.75C251 77 251 96.25 251 115.5C251 134.75 251 154 251 173.25C251 192.5 251 211.75 251 221.882V231L267.542 231Z" fill="#536A44"/>
</svg>
